<svg width="19" height="18" viewBox="0 0 19 18" fill="none" xmlns="http://www.w3.org/2000/svg">
<path d="M11.124 9.54102H7.87596C7.80492 9.54102 7.73457 9.55501 7.66893 9.5822C7.60329 9.60938 7.54365 9.64923 7.49342 9.69947C7.44318 9.74971 7.40333 9.80935 7.37614 9.87498C7.34895 9.94062 7.33496 10.011 7.33496 10.082V17.118C7.33496 17.1891 7.34895 17.2594 7.37614 17.325C7.40333 17.3907 7.44318 17.4503 7.49342 17.5006C7.54365 17.5508 7.60329 17.5906 7.66893 17.6178C7.73457 17.645 7.80492 17.659 7.87596 17.659H11.124C11.2674 17.659 11.405 17.602 11.5065 17.5006C11.608 17.3991 11.665 17.2615 11.665 17.118V10.082C11.665 9.93853 11.608 9.80093 11.5065 9.69947C11.405 9.59801 11.2674 9.54102 11.124 9.54102Z" fill="#1890FF"/>
<path d="M4.62897 12.789H1.38097C1.23748 12.789 1.09988 12.846 0.998421 12.9475C0.896964 13.0489 0.839966 13.1865 0.839966 13.33L0.839966 17.119C0.839966 17.2625 0.896964 17.4001 0.998421 17.5015C1.09988 17.603 1.23748 17.66 1.38097 17.66H4.62897C4.77245 17.66 4.91005 17.603 5.01151 17.5015C5.11297 17.4001 5.16997 17.2625 5.16997 17.119V13.33C5.16997 13.1865 5.11297 13.0489 5.01151 12.9475C4.91005 12.846 4.77245 12.789 4.62897 12.789Z" fill="#1890FF"/>
<path d="M17.619 6.29401H14.371C14.2999 6.29401 14.2296 6.308 14.1639 6.33519C14.0983 6.36238 14.0386 6.40222 13.9884 6.45246C13.9382 6.5027 13.8983 6.56234 13.8711 6.62797C13.8439 6.69361 13.83 6.76396 13.83 6.83501V17.119C13.83 17.1901 13.8439 17.2604 13.8711 17.326C13.8983 17.3917 13.9382 17.4513 13.9884 17.5016C14.0386 17.5518 14.0983 17.5916 14.1639 17.6188C14.2296 17.646 14.2999 17.66 14.371 17.66H17.619C17.7624 17.66 17.9 17.603 18.0015 17.5016C18.103 17.4001 18.16 17.2625 18.16 17.119V6.83501C18.16 6.69152 18.103 6.55392 18.0015 6.45246C17.9 6.351 17.7624 6.29401 17.619 6.29401Z" fill="#1890FF"/>
<path d="M9.49996 6.84003C9.57112 6.84007 9.6416 6.82605 9.70733 6.79876C9.77306 6.77147 9.83274 6.73146 9.88296 6.68103L14.372 2.18803V4.67003H15.455V0.881031C15.455 0.809817 15.4409 0.739304 15.4136 0.673536C15.3863 0.607768 15.3462 0.54804 15.2958 0.497777C15.2453 0.447514 15.1855 0.407706 15.1196 0.380636C15.0537 0.353566 14.9832 0.339767 14.912 0.340031H11.124V1.42303H13.606L9.49996 5.52903L7.17696 3.20503C7.0755 3.1036 6.93792 3.04662 6.79446 3.04662C6.651 3.04662 6.51341 3.1036 6.41196 3.20503L3.70496 5.91103L4.46996 6.67603L6.79396 4.35303L9.11796 6.67703C9.16772 6.72807 9.2271 6.76875 9.29266 6.79672C9.35822 6.8247 9.42868 6.83942 9.49996 6.84003Z" fill="#1890FF"/>
</svg>
