<svg width="400" height="400" viewBox="0 0 400 400" fill="none" xmlns="http://www.w3.org/2000/svg">
<path d="M200 352.5C283.671 352.5 351.5 284.447 351.5 200.5C351.5 116.553 283.671 48.5 200 48.5C116.329 48.5 48.5 116.553 48.5 200.5C48.5 284.447 116.329 352.5 200 352.5Z" stroke="#EEDFF9"/>
<path d="M200 399.5C310.181 399.5 399.5 310.181 399.5 200C399.5 89.8192 310.181 0.5 200 0.5C89.8192 0.5 0.5 89.8192 0.5 200C0.5 310.181 89.8192 399.5 200 399.5Z" stroke="#EEDFF9"/>
<path d="M200 304.5C257.714 304.5 304.5 257.714 304.5 200C304.5 142.286 257.714 95.5 200 95.5C142.286 95.5 95.5 142.286 95.5 200C95.5 257.714 142.286 304.5 200 304.5Z" stroke="#EEDFF9"/>
</svg>
