<svg width="17" height="17" viewBox="0 0 17 17" fill="none" xmlns="http://www.w3.org/2000/svg">
<path d="M9.01307 0H7.98607V7.7H6.44507V8.732H7.98607V16.432H9.01307V13.355H10.5541V12.328H9.01307V4.109H10.5541V3.082H9.01307V0Z" fill="#52C41A"/>
<path d="M15.5 1.21899H12.5C11.9477 1.21899 11.5 1.66671 11.5 2.21899V5.21899C11.5 5.77128 11.9477 6.21899 12.5 6.21899H15.5C16.0523 6.21899 16.5 5.77128 16.5 5.21899V2.21899C16.5 1.66671 16.0523 1.21899 15.5 1.21899Z" fill="#52C41A"/>
<path d="M15.5 10.219H12.5C11.9477 10.219 11.5 10.6667 11.5 11.219V14.219C11.5 14.7713 11.9477 15.219 12.5 15.219H15.5C16.0523 15.219 16.5 14.7713 16.5 14.219V11.219C16.5 10.6667 16.0523 10.219 15.5 10.219Z" fill="#52C41A"/>
<path d="M4.5 5.21899H1.5C0.947715 5.21899 0.5 5.66671 0.5 6.21899V10.219C0.5 10.7713 0.947715 11.219 1.5 11.219H4.5C5.05228 11.219 5.5 10.7713 5.5 10.219V6.21899C5.5 5.66671 5.05228 5.21899 4.5 5.21899Z" fill="#52C41A"/>
</svg>
