<svg width="18" height="17" viewBox="0 0 18 17" fill="none" xmlns="http://www.w3.org/2000/svg">
<path d="M4.48501 8.43803V1.47103H13.537V8.43803L16.444 6.82303L14.544 5.70803V0.965027C14.544 0.832419 14.4913 0.705242 14.3976 0.611473C14.3038 0.517705 14.1766 0.465027 14.044 0.465027H3.98201C3.8494 0.465027 3.72223 0.517705 3.62846 0.611473C3.53469 0.705242 3.48201 0.832419 3.48201 0.965027V5.70603L1.56201 6.81503L4.48501 8.43803Z" fill="#F5222D"/>
<path d="M9.25497 11.9671C9.1804 12.0087 9.09639 12.0306 9.01097 12.0306C8.92554 12.0306 8.84153 12.0087 8.76697 11.9671L0.964966 7.63306V16.0531C0.964966 16.1857 1.01764 16.3128 1.11141 16.4066C1.20518 16.5004 1.33236 16.5531 1.46497 16.5531H16.554C16.6866 16.5531 16.8138 16.5004 16.9075 16.4066C17.0013 16.3128 17.054 16.1857 17.054 16.0531V7.63306L9.25497 11.9671Z" fill="#F5222D"/>
<path d="M7.50191 7.71305L5.63791 5.84905C5.59089 5.80255 5.55357 5.74719 5.52809 5.68616C5.50262 5.62514 5.4895 5.55967 5.4895 5.49355C5.4895 5.42742 5.50262 5.36195 5.52809 5.30093C5.55357 5.23991 5.59089 5.18455 5.63791 5.13805L7.50191 3.27405L8.21291 3.98505L6.70491 5.49405L8.21391 7.00305L7.50191 7.71305Z" fill="#F5222D"/>
<path d="M10.5219 7.71304L9.81086 7.00204L11.3199 5.49304L9.80786 3.98804L10.5189 3.27704L12.3829 5.13804C12.4299 5.18454 12.4672 5.2399 12.4927 5.30092C12.5181 5.36194 12.5313 5.42741 12.5313 5.49354C12.5313 5.55966 12.5181 5.62513 12.4927 5.68615C12.4672 5.74718 12.4299 5.80254 12.3829 5.84904L10.5219 7.71304Z" fill="#F5222D"/>
</svg>
